<?xml version="1.0" encoding="utf-8"?>
<svg xmlns="http://www.w3.org/2000/svg">
<symbol id="bars" viewBox="0 0 58 58"><path d="M50.6 49.1H38.3V8.9h12.4v40.2zm-15.4 0H22.8V21.3h12.4v27.8zm-15.5 0H7.4V30.5h12.4v18.6z"/>
</symbol>
<symbol id="caret" viewBox="0 0 26 26"><path d="m12.8 15.7-5.6-5.3.6-.8 5 4.7 5.4-4.7.6.8z"/>
</symbol>
<symbol id="person" viewBox="0 0 58 58"><path d="M33 57h-8c-1.1 0-2.1-.4-2.8-1.1-.8-.7-1.2-1.7-1.2-2.7V39.6c-1.1 0-2.1-.4-2.8-1.1-.8-.7-1.2-1.7-1.2-2.7V24.2c0-1.5.6-3 1.8-4.1 1.1-1.1 2.7-1.7 4.2-1.7h12a5.94 5.94 0 0 1 6 5.8v11.6c0 1-.4 2-1.2 2.7-.8.7-1.8 1.1-2.8 1.1v13.5c0 1-.4 2-1.2 2.7-.7.8-1.7 1.2-2.8 1.2zM23 22.2c-.3 0-.5 0-.8.1-.3.1-.5.2-.7.4-.2.2-.3.4-.4.6-.1.4-.1.6-.1.9v11.6h4v17.4h8V35.8h4V24.2c0-.3 0-.5-.1-.8-.1-.2-.2-.5-.4-.6-.2-.2-.4-.3-.7-.4s-.5-.1-.8-.1H23zm6-5.8c-1.6 0-3.1-.5-4.4-1.3-1.3-.8-2.3-2.1-2.9-3.5-.6-1.4-.8-3-.5-4.5.3-1.5 1.1-2.9 2.2-4A7.7 7.7 0 0 1 27.5 1c1.5-.1 3.1 0 4.6.6 1.5.6 2.7 1.6 3.6 2.8.8 1.3 1.3 2.8 1.3 4.3 0 2-.8 4-2.3 5.5a8.46 8.46 0 0 1-5.7 2.2zm0-11.5c-.8 0-1.6.2-2.2.7-.7.4-1.2 1-1.5 1.7-.3.7-.4 1.4-.2 2.2.2.7.5 1.4 1.1 2 .6.5 1.3.9 2 1.1.8.1 1.6.1 2.3-.2s1.4-.8 1.8-1.4c.4-.6.7-1.4.7-2.1 0-1-.4-2-1.2-2.7-.7-.9-1.7-1.3-2.8-1.3z"/>
</symbol>
<symbol id="scroll" viewBox="0 0 58 58"><path fill-rule="evenodd" d="M8.4 29a20.5 20.5 0 1 0 41.01.01A20.5 20.5 0 0 0 8.4 29zm44.1 0A23.55 23.55 0 0 1 29 52.5 23.55 23.55 0 0 1 5.5 29 23.55 23.55 0 0 1 29 5.5 23.55 23.55 0 0 1 52.5 29zm-22-10.3c0-.4-.2-.8-.4-1-.3-.3-.6-.4-1-.4s-.8.2-1 .4c-.3.3-.4.6-.4 1v17l-6.3-6.3c-.3-.3-.6-.4-1-.4s-.8.2-1 .4-.4.6-.4 1 .2.8.4 1l8.8 8.8c.1.1.3.2.5.3.2.1.4.1.6.1s.4 0 .6-.1c.2-.1.3-.2.5-.3l8.8-8.8c.3-.3.4-.6.4-1s-.2-.8-.4-1c-.3-.3-.6-.4-1-.4s-.8.2-1 .4l-6.3 6.3v-17z" clip-rule="evenodd"/>
</symbol>
<symbol id="steps" viewBox="0 0 58 58"><path d="M10.2 9c.3 0 .7.1.9.4.2.2.4.6.4.9v37.4c0 .3-.1.6-.4.9-.2.2-.6.4-.9.4s-.7-.1-.9-.4c-.2-.2-.4-.6-.4-.9V10.3c0-.3.1-.6.4-.9.3-.2.6-.4.9-.4zm3.8 3.8c0-.3.1-.6.4-.9.2-.2.6-.4.9-.4h10c.3 0 .7.1.9.4.2.2.4.6.4.9v2.5c0 .3-.1.6-.4.9-.2.2-.6.4-.9.4h-10c-.3 0-.7-.1-.9-.4-.2-.2-.4-.6-.4-.9v-2.5zm5 10c0-.3.1-.6.4-.9s.6-.4.9-.4h17.5c.3 0 .7.1.9.4.2.2.4.6.4.9v2.5c0 .3-.1.6-.4.9-.2.2-.6.4-.9.4H20.2c-.3 0-.7-.1-.9-.4s-.3-.6-.3-.9v-2.5zm5 9.9c0-.3.1-.6.4-.9.2-.2.6-.4.9-.4h15c.3 0 .7.1.9.4.2.2.4.6.4.9v2.5c0 .3-.1.6-.4.9-.2.2-.6.4-.9.4h-15c-.3 0-.7-.1-.9-.4-.2-.2-.4-.6-.4-.9v-2.5zm5 10c0-.3.1-.6.4-.9.2-.2.6-.4.9-.4h17.5c.3 0 .7.1.9.4.2.2.4.6.4.9v2.5c0 .3-.1.6-.4.9-.2.2-.6.4-.9.4H30.3c-.3 0-.7-.1-.9-.4-.2-.2-.4-.6-.4-.9v-2.5z"/>
</symbol>
<symbol id="trophy" viewBox="0 0 58 58"><path d="M45.7 14h-3.3v-1.7c0-.9-.4-1.7-1-2.4-.6-.6-1.5-1-2.4-1H19c-.9 0-1.7.4-2.4 1-.6.6-1 1.5-1 2.4V14h-3.3c-.9 0-1.7.4-2.4 1-.6.6-1 1.5-1 2.4v5c0 1.8.7 3.5 2 4.7 1.2 1.2 2.9 2 4.7 2h.5c.7 2.6 2.1 4.8 4.1 6.6 2 1.8 4.4 2.9 7 3.3v6.8H19V49h20v-3.3h-8.3v-6.8c2.6-.3 5.1-1.4 7.1-3.2 2-1.8 3.4-4.1 4.1-6.7h.4c1.8 0 3.5-.7 4.7-2 1.2-1.2 2-2.9 2-4.7v-5c0-.9-.4-1.7-1-2.4-.6-.5-1.4-.9-2.3-.9zm-30 11.7c-.9 0-1.7-.4-2.4-1-.6-.6-1-1.5-1-2.4v-5h3.3v8.4zm23.3 0c0 1.3-.3 2.7-.8 3.9-.5 1.2-1.3 2.3-2.2 3.3-1 .9-2.1 1.7-3.3 2.1-1.2.5-2.6.7-3.9.7-2.7-.2-5.1-1.3-6.9-3.3-1.8-2-2.8-4.5-2.7-7.2V12.3h20v13.4zm6.7-3.4c0 .9-.4 1.7-1 2.4s-1.5 1-2.4 1v-8.3h3.3v4.9z"/>
</symbol></svg>