<svg xmlns="http://www.w3.org/2000/svg" fill="none" viewBox="0 0 187 88"><path stroke="#13B2C2" stroke-linecap="round" stroke-width="3" d="M95.39 62.2c-12.2 2.95-26.72 3.42-37.31-4.34C51.3 52.9 47.8 42.94 50.45 34.9c2.5-7.6 8.2-14.24 16.63-13.97 4.4.14 8.16 2.2 8.9 6.85 1.15 7.1-6 14.4-11.64 17.45C46.72 54.73 21.96 54 5.42 42.7M11.68 55.44c-2.04-2.89-6.5-9.63-8-13.46"/><path stroke="#13B2C2" stroke-linecap="round" stroke-width="3" d="M3.68 41.98c3.52-.42 11.5-1.62 15.35-3.07"/><path fill="#13B2C2" d="M113.57 64.87c0 .76-.18 1.41-.56 1.96-.37.55-.9.98-1.6 1.27-.69.3-1.52.44-2.48.44a11 11 0 0 1-2.55-.3c-.38-.11-.72-.24-1.03-.39v-1.98c.52.23 1.1.43 1.75.62.64.18 1.3.27 1.97.27.54 0 1-.07 1.35-.2.36-.15.63-.36.8-.62.18-.27.27-.59.27-.94 0-.38-.1-.7-.3-.97a2.8 2.8 0 0 0-.94-.72c-.4-.22-.92-.46-1.55-.71-.42-.17-.82-.37-1.2-.58a4.9 4.9 0 0 1-1.03-.77 3.3 3.3 0 0 1-.7-1.03c-.18-.4-.26-.88-.26-1.43 0-.72.17-1.35.51-1.86.36-.52.85-.91 1.48-1.19a5.6 5.6 0 0 1 2.23-.41 8.2 8.2 0 0 1 3.66.8l-.67 1.7c-.53-.21-1.04-.39-1.54-.51-.49-.13-1-.2-1.5-.2-.45 0-.83.07-1.14.2-.31.14-.55.33-.71.58-.16.24-.24.52-.24.86 0 .37.09.69.27.95.19.25.48.48.86.69.4.21.9.45 1.51.7.71.3 1.31.6 1.8.93.5.32.89.7 1.15 1.16.26.44.4 1 .4 1.68Zm6.09-6.42c1.23 0 2.16.27 2.78.82.64.54.95 1.4.95 2.55v6.54h-1.47l-.4-1.38h-.06a5 5 0 0 1-.85.87c-.3.23-.64.4-1.02.51a4.8 4.8 0 0 1-2.96-.14 2.47 2.47 0 0 1-1.08-.98c-.26-.44-.4-1-.4-1.67 0-1 .38-1.76 1.12-2.26.75-.5 1.88-.78 3.4-.84l1.68-.06v-.5c0-.68-.16-1.16-.47-1.45a1.87 1.87 0 0 0-1.32-.43c-.49 0-.96.07-1.42.21-.45.14-.9.32-1.33.52l-.67-1.46a7.47 7.47 0 0 1 3.52-.85Zm1.68 5.26-1.25.05c-1.03.03-1.76.2-2.17.53-.42.31-.63.75-.63 1.3 0 .48.15.83.43 1.05.29.22.67.33 1.14.33.71 0 1.3-.2 1.77-.61.48-.41.71-1.01.71-1.8v-.85Zm7.17 4.65-3.7-9.73H127l2 5.72a12.97 12.97 0 0 1 .57 2.24h.07a20.17 20.17 0 0 1 .6-2.24l2-5.72h2.18l-3.7 9.73h-2.21Zm11.26-9.91c.87 0 1.62.18 2.24.54.62.35 1.1.86 1.43 1.52.33.65.5 1.44.5 2.35v1.1h-6.5c.03.95.28 1.68.76 2.19.49.5 1.17.76 2.04.76a7.23 7.23 0 0 0 3.2-.7v1.67c-.48.23-.97.4-1.48.5-.5.1-1.1.16-1.8.16a5.5 5.5 0 0 1-2.53-.55 4.05 4.05 0 0 1-1.7-1.67c-.4-.74-.6-1.66-.6-2.76 0-1.09.18-2.01.55-2.77a4 4 0 0 1 1.56-1.74c.66-.4 1.44-.6 2.33-.6Zm0 1.55a2.1 2.1 0 0 0-1.58.64 3 3 0 0 0-.7 1.85h4.43c0-.48-.09-.91-.25-1.29a1.87 1.87 0 0 0-.7-.88c-.31-.21-.7-.32-1.2-.32Zm19.2 8.36h-8.7v-1.55l3.34-3.38c.64-.65 1.17-1.22 1.59-1.7a6 6 0 0 0 .92-1.36c.2-.42.31-.89.31-1.4 0-.61-.18-1.08-.54-1.4a2.04 2.04 0 0 0-1.41-.48 3.6 3.6 0 0 0-1.55.33c-.47.22-.95.53-1.46.93L150.34 57c.36-.3.74-.58 1.14-.83a5.6 5.6 0 0 1 3.1-.83c.81 0 1.51.15 2.1.44a3.19 3.19 0 0 1 1.85 3c0 .7-.14 1.33-.41 1.92a7.34 7.34 0 0 1-1.18 1.74c-.51.57-1.12 1.19-1.82 1.86l-2.22 2.17v.1h6.08v1.8Zm5.98-8.03c.82 0 1.55.15 2.18.45.63.3 1.12.72 1.47 1.3.35.57.53 1.26.53 2.1 0 .9-.2 1.67-.57 2.33a3.76 3.76 0 0 1-1.68 1.5c-.74.35-1.64.53-2.7.53-.67 0-1.3-.06-1.89-.18a5.2 5.2 0 0 1-1.5-.52v-1.87a7.35 7.35 0 0 0 3.35.83c.6 0 1.1-.08 1.54-.26.42-.17.75-.44.98-.8.24-.37.35-.83.35-1.38 0-.74-.24-1.31-.71-1.71-.47-.4-1.2-.6-2.2-.6a9.17 9.17 0 0 0-2.11.29l-.91-.54.48-6.29h6.68v1.82h-4.86l-.28 3.2a9.82 9.82 0 0 1 1.85-.2Zm8.67-5c.94 0 1.66.35 2.15 1.05.48.7.72 1.69.72 2.97a5.4 5.4 0 0 1-.7 2.98c-.46.71-1.19 1.07-2.17 1.07-.92 0-1.62-.36-2.1-1.07a5.3 5.3 0 0 1-.72-2.98c0-1.28.22-2.27.68-2.97.45-.7 1.17-1.05 2.14-1.05Zm.01 1.44c-.38 0-.66.21-.84.64a5.4 5.4 0 0 0-.27 1.94c0 .87.09 1.52.27 1.96.18.43.46.65.84.65.39 0 .67-.22.86-.65a5 5 0 0 0 .3-1.96c0-.86-.1-1.5-.29-1.93-.19-.43-.48-.65-.87-.65Zm8.62-1.26-7.13 12.85h-1.7l7.14-12.85h1.7Zm-.24 4.96c.95 0 1.66.35 2.15 1.06.5.7.74 1.68.74 2.96 0 1.26-.24 2.25-.7 2.97-.47.71-1.2 1.07-2.19 1.07-.91 0-1.61-.36-2.1-1.07a5.28 5.28 0 0 1-.72-2.97c0-1.28.23-2.27.68-2.96.46-.7 1.17-1.06 2.14-1.06Zm.01 1.44c-.38 0-.66.22-.84.64a5.4 5.4 0 0 0-.26 1.95c0 .86.08 1.5.26 1.95.18.43.46.65.84.65.4 0 .69-.22.87-.64a5.2 5.2 0 0 0 .29-1.96c0-.87-.1-1.51-.29-1.94-.18-.43-.47-.65-.87-.65Z"/></svg>