<?xml version="1.0" encoding="utf-8"?>
<svg xmlns="http://www.w3.org/2000/svg">
<symbol id="bars" viewBox="0 0 58 58"><path d="M50.6 49.1H38.3V8.9h12.4v40.2zm-15.4 0H22.8V21.3h12.4v27.8zm-15.5 0H7.4V30.5h12.4v18.6z"/>
</symbol>
<symbol id="caret" viewBox="0 0 26 26"><path d="m12.8 15.7-5.6-5.3.6-.8 5 4.7 5.4-4.7.6.8z"/>
</symbol>
<symbol id="check" viewBox="0 0 20 20"><path d="M7.6 15.5a.9.9 0 0 1-.7-.3l-4-4c-.4-.4-.4-1 0-1.4s1-.4 1.4 0l3.3 3.3L15.7 5c.4-.4 1-.4 1.4 0s.4 1 0 1.4l-8.8 8.8c-.2.2-.5.3-.7.3z"/>
</symbol>
<symbol id="free" viewBox="0 0 40 40"><path d="M8.673 17.404v2.353h2.933v1.412H8.673v2.823H7v-8h5.26v1.412H8.674Zm4.763-1.412h3.2c1.94 0 2.91.879 2.91 2.636 0 1.043-.405 1.811-1.213 2.305l1.176 3.06h-1.83l-.958-2.683H15.11v2.682h-1.673v-8Zm3.225 3.93c.38 0 .67-.116.872-.347.202-.232.303-.543.303-.936 0-.392-.105-.7-.315-.923-.21-.224-.505-.336-.885-.336H15.11v2.542h1.552Zm5.963-2.518v1.87h2.934v1.389h-2.934v1.917h3.661v1.412h-5.333v-8h5.333v1.412h-3.66Zm6.715 0v1.87h2.934v1.389h-2.934v1.917H33v1.412h-5.333v-8H33v1.412h-3.66Z" style="transform: scale(1.4); transform-origin: center;"/>
</symbol>
<symbol id="heart" viewBox="0 0 28 28"><path d="M19.3 4.8c.8 0 1.6.1 2.4.4a5.94 5.94 0 0 1 3.2 3c.3.7.5 1.4.5 2.2 0 .4 0 .8-.1 1.2-.1.4-.2.8-.4 1.1h-5.2l-2.1-2.1-3.6 3.3-5-4.6-3.6 3.4H3.2c-.2-.4-.3-.7-.4-1.1-.1-.4-.1-.8-.1-1.2 0-.8.2-1.5.5-2.2.3-.7.7-1.3 1.3-1.8.5-.5 1.2-.9 1.9-1.2.6-.3 1.4-.4 2.3-.4.8 0 1.6.1 2.3.4.7.3 1.4.7 2 1.2l1.1 1 1.1-1c.6-.5 1.2-.9 2-1.2.5-.3 1.3-.4 2.1-.4zm-1 9.2H24l-.2.2-.2.2-9.6 8.8-9.6-8.9-.2-.2-.2-.2h2.8L9 12.1l5 4.6 3.6-3.3.7.6z"/>
</symbol>
<symbol id="info" viewBox="0 0 16 16"><path d="M7.34 11.33h1.33v-4H7.34v4ZM8 6c.2 0 .35-.07.48-.2a.61.61 0 0 0 .19-.47.65.65 0 0 0-.2-.47.65.65 0 0 0-.47-.2.65.65 0 0 0-.47.2.65.65 0 0 0-.2.47A.67.67 0 0 0 8 6Zm0 8.67a6.73 6.73 0 0 1-6.14-4.07A6.5 6.5 0 0 1 1.34 8 6.73 6.73 0 0 1 5.4 1.86 6.5 6.5 0 0 1 8 1.33a6.73 6.73 0 0 1 6.14 4.07c.34.81.52 1.68.52 2.6a6.73 6.73 0 0 1-4.07 6.14 6.5 6.5 0 0 1-2.6.53Zm0-1.34c1.5 0 2.75-.51 3.79-1.55A5.15 5.15 0 0 0 13.34 8c0-1.49-.52-2.75-1.55-3.78A5.15 5.15 0 0 0 8 2.67a5.1 5.1 0 0 0-3.78 1.55A5.15 5.15 0 0 0 2.67 8c0 1.49.52 2.75 1.55 3.78A5.15 5.15 0 0 0 8 13.33Z"/>
</symbol>
<symbol id="person" viewBox="0 0 58 58"><path d="M33 57h-8c-1.1 0-2.1-.4-2.8-1.1-.8-.7-1.2-1.7-1.2-2.7V39.6c-1.1 0-2.1-.4-2.8-1.1-.8-.7-1.2-1.7-1.2-2.7V24.2c0-1.5.6-3 1.8-4.1 1.1-1.1 2.7-1.7 4.2-1.7h12a5.94 5.94 0 0 1 6 5.8v11.6c0 1-.4 2-1.2 2.7-.8.7-1.8 1.1-2.8 1.1v13.5c0 1-.4 2-1.2 2.7-.7.8-1.7 1.2-2.8 1.2zM23 22.2c-.3 0-.5 0-.8.1-.3.1-.5.2-.7.4-.2.2-.3.4-.4.6-.1.4-.1.6-.1.9v11.6h4v17.4h8V35.8h4V24.2c0-.3 0-.5-.1-.8-.1-.2-.2-.5-.4-.6-.2-.2-.4-.3-.7-.4s-.5-.1-.8-.1H23zm6-5.8c-1.6 0-3.1-.5-4.4-1.3-1.3-.8-2.3-2.1-2.9-3.5-.6-1.4-.8-3-.5-4.5.3-1.5 1.1-2.9 2.2-4A7.7 7.7 0 0 1 27.5 1c1.5-.1 3.1 0 4.6.6 1.5.6 2.7 1.6 3.6 2.8.8 1.3 1.3 2.8 1.3 4.3 0 2-.8 4-2.3 5.5a8.46 8.46 0 0 1-5.7 2.2zm0-11.5c-.8 0-1.6.2-2.2.7-.7.4-1.2 1-1.5 1.7-.3.7-.4 1.4-.2 2.2.2.7.5 1.4 1.1 2 .6.5 1.3.9 2 1.1.8.1 1.6.1 2.3-.2s1.4-.8 1.8-1.4c.4-.6.7-1.4.7-2.1 0-1-.4-2-1.2-2.7-.7-.9-1.7-1.3-2.8-1.3z"/>
</symbol>
<symbol id="plane" viewBox="0 0 28 28"><path d="M9.92 25.67v-1.75l2.33-1.75v-6.42l-9.91 2.92v-2.34l9.91-5.83V4.08c0-.48.17-.9.51-1.24.34-.34.76-.5 1.24-.5.49 0 .9.16 1.24.5.34.34.51.76.51 1.24v6.42l9.92 5.83v2.34l-9.92-2.92v6.42l2.34 1.75v1.75L14 24.5l-4.08 1.17Z"/>
</symbol>
<symbol id="scroll" viewBox="0 0 58 58"><path fill-rule="evenodd" d="M8.4 29a20.5 20.5 0 1 0 41.01.01A20.5 20.5 0 0 0 8.4 29zm44.1 0A23.55 23.55 0 0 1 29 52.5 23.55 23.55 0 0 1 5.5 29 23.55 23.55 0 0 1 29 5.5 23.55 23.55 0 0 1 52.5 29zm-22-10.3c0-.4-.2-.8-.4-1-.3-.3-.6-.4-1-.4s-.8.2-1 .4c-.3.3-.4.6-.4 1v17l-6.3-6.3c-.3-.3-.6-.4-1-.4s-.8.2-1 .4-.4.6-.4 1 .2.8.4 1l8.8 8.8c.1.1.3.2.5.3.2.1.4.1.6.1s.4 0 .6-.1c.2-.1.3-.2.5-.3l8.8-8.8c.3-.3.4-.6.4-1s-.2-.8-.4-1c-.3-.3-.6-.4-1-.4s-.8.2-1 .4l-6.3 6.3v-17z" clip-rule="evenodd"/>
</symbol>
<symbol id="steps" viewBox="0 0 58 58"><path d="M10.2 9c.3 0 .7.1.9.4.2.2.4.6.4.9v37.4c0 .3-.1.6-.4.9-.2.2-.6.4-.9.4s-.7-.1-.9-.4c-.2-.2-.4-.6-.4-.9V10.3c0-.3.1-.6.4-.9.3-.2.6-.4.9-.4zm3.8 3.8c0-.3.1-.6.4-.9.2-.2.6-.4.9-.4h10c.3 0 .7.1.9.4.2.2.4.6.4.9v2.5c0 .3-.1.6-.4.9-.2.2-.6.4-.9.4h-10c-.3 0-.7-.1-.9-.4-.2-.2-.4-.6-.4-.9v-2.5zm5 10c0-.3.1-.6.4-.9s.6-.4.9-.4h17.5c.3 0 .7.1.9.4.2.2.4.6.4.9v2.5c0 .3-.1.6-.4.9-.2.2-.6.4-.9.4H20.2c-.3 0-.7-.1-.9-.4s-.3-.6-.3-.9v-2.5zm5 9.9c0-.3.1-.6.4-.9.2-.2.6-.4.9-.4h15c.3 0 .7.1.9.4.2.2.4.6.4.9v2.5c0 .3-.1.6-.4.9-.2.2-.6.4-.9.4h-15c-.3 0-.7-.1-.9-.4-.2-.2-.4-.6-.4-.9v-2.5zm5 10c0-.3.1-.6.4-.9.2-.2.6-.4.9-.4h17.5c.3 0 .7.1.9.4.2.2.4.6.4.9v2.5c0 .3-.1.6-.4.9-.2.2-.6.4-.9.4H30.3c-.3 0-.7-.1-.9-.4-.2-.2-.4-.6-.4-.9v-2.5z"/>
</symbol>
<symbol id="trophy" viewBox="0 0 58 58"><path d="M45.7 14h-3.3v-1.7c0-.9-.4-1.7-1-2.4-.6-.6-1.5-1-2.4-1H19c-.9 0-1.7.4-2.4 1-.6.6-1 1.5-1 2.4V14h-3.3c-.9 0-1.7.4-2.4 1-.6.6-1 1.5-1 2.4v5c0 1.8.7 3.5 2 4.7 1.2 1.2 2.9 2 4.7 2h.5c.7 2.6 2.1 4.8 4.1 6.6 2 1.8 4.4 2.9 7 3.3v6.8H19V49h20v-3.3h-8.3v-6.8c2.6-.3 5.1-1.4 7.1-3.2 2-1.8 3.4-4.1 4.1-6.7h.4c1.8 0 3.5-.7 4.7-2 1.2-1.2 2-2.9 2-4.7v-5c0-.9-.4-1.7-1-2.4-.6-.5-1.4-.9-2.3-.9zm-30 11.7c-.9 0-1.7-.4-2.4-1-.6-.6-1-1.5-1-2.4v-5h3.3v8.4zm23.3 0c0 1.3-.3 2.7-.8 3.9-.5 1.2-1.3 2.3-2.2 3.3-1 .9-2.1 1.7-3.3 2.1-1.2.5-2.6.7-3.9.7-2.7-.2-5.1-1.3-6.9-3.3-1.8-2-2.8-4.5-2.7-7.2V12.3h20v13.4zm6.7-3.4c0 .9-.4 1.7-1 2.4s-1.5 1-2.4 1v-8.3h3.3v4.9z"/>
</symbol>
<symbol id="work" viewBox="0 0 28 28"><path d="M18 10.6c.1.1.2.3.2.5s-.1.4-.2.5-.3.2-.5.2h-7l-.2.2-.3-.4-.3-.3.1-.1c0-.2.1-.4.2-.5.1-.1.3-.2.5-.2h7c.2-.1.4 0 .5.1zm3.7-1.2V20c0 .8-.3 1.5-.8 2.1-.5.6-1.2 1-2 1v.7c0 .2-.1.4-.2.5-.3.3-.7.3-1 0-.1-.1-.2-.3-.2-.5v-.7h-7v.7l.1.1-.3.3-.3.3-.1-.1c-.2 0-.4-.1-.5-.2-.1-.1-.2-.3-.2-.5V23c-.8-.1-1.5-.5-2-1-.5-.6-.8-1.3-.8-2.1V9.4c0-.8.3-1.6.9-2.2.6-.6 1.4-.9 2.2-.9h1.8V4.8h-.7c-.2 0-.4-.1-.5-.2-.2-.2-.3-.3-.3-.5s.1-.4.2-.5c.1-.1.3-.2.5-.2h7c.2 0 .4.1.5.2.1.1.2.3.2.5s-.1.4-.2.5-.3.2-.5.2h-.4v1.4h1.4c.8 0 1.6.3 2.2.9.7.6 1 1.4 1 2.3zm-9.1-3.2h3.2V4.8h-3.2v1.4zm7.7 3.2c0-.5-.2-.9-.5-1.2-.3-.3-.8-.5-1.2-.5H9.4c-.4-.1-.9.1-1.2.4s-.5.8-.5 1.3V20c0 .5.2.9.5 1.2.3.3.8.5 1.2.5h9.2c.5 0 .9-.2 1.2-.5.3-.3.5-.8.5-1.2V9.4z"/>
</symbol></svg>