<svg xmlns="http://www.w3.org/2000/svg" viewBox="0 0 68 11"><path fill="#15161D" d="M26.64 11a1 1 0 1 1-.16-2c5.87-.45 12.03-.94 17.3-1.4a13105.23 13105.23 0 0 0-26.51.08c-5.35.02-9.85.03-12.43.02a50.6 50.6 0 0 1-2.56-.07 1.03 1.03 0 0 1-.44-.23c-.1-.1-.28-.4-.33-.61 0-.24.12-.64.22-.78.08-.09.23-.2.29-.24l.22-.09.1-.02a51.6 51.6 0 0 1 1.56-.08c4.15-.11 13.35-1.32 22.55-2.66A666.8 666.8 0 0 1 .95 2a1 1 0 0 1 .1-2C9.08.47 23.89 1.05 39 1.02l6.42-1a1 1 0 0 1 1.15.93C53.77.83 60.8.54 66.91 0a1 1 0 1 1 .18 2c-8.29.72-18.17 1-27.93 1.02-5.38.84-11.82 1.81-17.84 2.65l6.35-.02c8.35-.03 17.11-.07 23.38-.07 2.24 0 3.86.03 4.93.09.53.03.96.06 1.27.11.14.02.3.06.46.1.07.03.18.07.3.15a1.04 1.04 0 0 1 .26 1.54c-.13.16-.27.25-.34.29a2.1 2.1 0 0 1-.44.17c-.27.08-.62.15-1.04.22-.84.15-2.05.3-3.54.47A959.5 959.5 0 0 1 26.64 11Z"/></svg>
