<svg width="227" height="88" viewBox="0 0 227 88" fill="none" xmlns="http://www.w3.org/2000/svg">
<path d="M95.3853 62.2036C83.193 65.1544 68.671 65.6231 58.0778 57.8588C51.3081 52.8969 47.7994 42.9402 50.4456 34.8999C52.9448 27.3064 58.6508 20.6611 67.081 20.9285C71.4751 21.0679 75.2411 23.1266 75.9866 27.7796C77.1256 34.8882 69.9845 42.1818 64.3392 45.2277C46.7211 54.7333 21.9642 54.0104 5.42023 42.6981" stroke="#13B2C2" stroke-width="3" stroke-linecap="round"/>
<path d="M11.6797 55.4414C9.63664 52.5503 5.178 45.8096 3.68788 41.9757" stroke="#13B2C2" stroke-width="3" stroke-linecap="round"/>
<path d="M3.67969 41.9766C7.19528 41.5603 15.188 40.3633 19.0342 38.9053" stroke="#13B2C2" stroke-width="3" stroke-linecap="round"/>
<path d="M113.979 68.3633H105.277V66.8076L108.608 63.4326C109.253 62.7764 109.783 62.2109 110.199 61.7363C110.615 61.2559 110.923 60.8018 111.122 60.374C111.327 59.9463 111.43 59.4805 111.43 58.9766C111.43 58.3555 111.251 57.8867 110.894 57.5703C110.536 57.248 110.064 57.0869 109.479 57.0869C108.922 57.0869 108.406 57.1982 107.932 57.4209C107.463 57.6377 106.977 57.9482 106.473 58.3525L105.339 56.9902C105.696 56.6855 106.077 56.4072 106.481 56.1553C106.892 55.9033 107.349 55.7041 107.853 55.5576C108.356 55.4053 108.931 55.3291 109.575 55.3291C110.39 55.3291 111.093 55.4756 111.685 55.7686C112.276 56.0557 112.73 56.457 113.047 56.9727C113.369 57.4883 113.53 58.0889 113.53 58.7744C113.53 59.4658 113.393 60.1045 113.117 60.6904C112.842 61.2764 112.449 61.8564 111.939 62.4307C111.43 62.999 110.823 63.6172 110.12 64.2852L107.896 66.4561V66.5527H113.979V68.3633ZM125.782 60.207H123.418V68.3633H121.353V60.207H119.762V59.2139L121.353 58.6074V57.9307C121.353 57.1045 121.481 56.4482 121.739 55.9619C122.003 55.4756 122.378 55.127 122.864 54.916C123.356 54.6992 123.942 54.5908 124.622 54.5908C125.067 54.5908 125.475 54.6289 125.844 54.7051C126.213 54.7754 126.523 54.8574 126.775 54.9512L126.239 56.5156C126.04 56.4512 125.817 56.3926 125.571 56.3398C125.325 56.2812 125.062 56.252 124.78 56.252C124.312 56.252 123.966 56.3984 123.743 56.6914C123.526 56.9844 123.418 57.4121 123.418 57.9746V58.6338H125.782V60.207ZM132.374 58.4492C132.538 58.4492 132.717 58.458 132.91 58.4756C133.104 58.4932 133.271 58.5166 133.411 58.5459L133.218 60.4795C133.095 60.4443 132.942 60.418 132.761 60.4004C132.585 60.3828 132.427 60.374 132.286 60.374C131.917 60.374 131.565 60.4355 131.231 60.5586C130.897 60.6758 130.602 60.8574 130.344 61.1035C130.086 61.3438 129.884 61.6455 129.737 62.0088C129.591 62.3721 129.518 62.7939 129.518 63.2744V68.3633H127.443V58.6338H129.061L129.342 60.3477H129.438C129.632 60.002 129.872 59.6855 130.159 59.3984C130.446 59.1113 130.774 58.8828 131.144 58.7129C131.519 58.5371 131.929 58.4492 132.374 58.4492ZM139.089 58.4492C139.956 58.4492 140.7 58.6279 141.321 58.9854C141.942 59.3428 142.42 59.8496 142.754 60.5059C143.088 61.1621 143.255 61.9473 143.255 62.8613V63.9688H136.76C136.783 64.9121 137.035 65.6387 137.516 66.1484C138.002 66.6582 138.682 66.9131 139.555 66.9131C140.176 66.9131 140.732 66.8545 141.225 66.7373C141.723 66.6143 142.235 66.4355 142.763 66.2012V67.8799C142.276 68.1084 141.781 68.2754 141.277 68.3809C140.773 68.4863 140.17 68.5391 139.467 68.5391C138.512 68.5391 137.671 68.3545 136.944 67.9854C136.224 67.6104 135.658 67.0537 135.248 66.3154C134.844 65.5771 134.642 64.6602 134.642 63.5645C134.642 62.4746 134.826 61.5488 135.195 60.7871C135.564 60.0254 136.083 59.4453 136.751 59.0469C137.419 58.6484 138.198 58.4492 139.089 58.4492ZM139.089 60.0049C138.438 60.0049 137.911 60.2158 137.507 60.6377C137.108 61.0596 136.874 61.6777 136.804 62.4922H141.233C141.228 62.0059 141.146 61.5752 140.987 61.2002C140.835 60.8252 140.601 60.5322 140.284 60.3213C139.974 60.1104 139.575 60.0049 139.089 60.0049ZM149.46 58.4492C150.327 58.4492 151.071 58.6279 151.692 58.9854C152.313 59.3428 152.791 59.8496 153.125 60.5059C153.459 61.1621 153.626 61.9473 153.626 62.8613V63.9688H147.131C147.154 64.9121 147.406 65.6387 147.887 66.1484C148.373 66.6582 149.053 66.9131 149.926 66.9131C150.547 66.9131 151.104 66.8545 151.596 66.7373C152.094 66.6143 152.606 66.4355 153.134 66.2012V67.8799C152.647 68.1084 152.152 68.2754 151.648 68.3809C151.145 68.4863 150.541 68.5391 149.838 68.5391C148.883 68.5391 148.042 68.3545 147.315 67.9854C146.595 67.6104 146.029 67.0537 145.619 66.3154C145.215 65.5771 145.013 64.6602 145.013 63.5645C145.013 62.4746 145.197 61.5488 145.566 60.7871C145.936 60.0254 146.454 59.4453 147.122 59.0469C147.79 58.6484 148.569 58.4492 149.46 58.4492ZM149.46 60.0049C148.81 60.0049 148.282 60.2158 147.878 60.6377C147.479 61.0596 147.245 61.6777 147.175 62.4922H151.604C151.599 62.0059 151.517 61.5752 151.358 61.2002C151.206 60.8252 150.972 60.5322 150.655 60.3213C150.345 60.1104 149.946 60.0049 149.46 60.0049ZM171.626 58.4492C172.716 58.4492 173.536 58.7305 174.087 59.293C174.644 59.8555 174.922 60.7578 174.922 62V68.3633H172.856V62.3691C172.856 61.6309 172.713 61.0742 172.426 60.6992C172.139 60.3242 171.702 60.1367 171.116 60.1367C170.296 60.1367 169.704 60.4004 169.341 60.9277C168.983 61.4492 168.805 62.208 168.805 63.2041V68.3633H166.739V62.3691C166.739 61.877 166.675 61.4668 166.546 61.1387C166.423 60.8047 166.232 60.5557 165.975 60.3916C165.717 60.2217 165.392 60.1367 164.999 60.1367C164.431 60.1367 163.977 60.2656 163.637 60.5234C163.303 60.7812 163.062 61.1621 162.916 61.666C162.77 62.1641 162.696 62.7764 162.696 63.5029V68.3633H160.631V58.6338H162.239L162.529 59.9434H162.644C162.843 59.6035 163.089 59.3252 163.382 59.1084C163.681 58.8857 164.012 58.7217 164.375 58.6162C164.738 58.5049 165.116 58.4492 165.509 58.4492C166.235 58.4492 166.848 58.5781 167.346 58.8359C167.844 59.0879 168.216 59.4746 168.462 59.9961H168.62C168.925 59.4688 169.35 59.0791 169.895 58.8271C170.439 58.5752 171.017 58.4492 171.626 58.4492ZM186.418 63.4766C186.418 64.2852 186.312 65.0029 186.102 65.6299C185.891 66.2568 185.583 66.7871 185.179 67.2207C184.774 67.6484 184.288 67.9766 183.72 68.2051C183.151 68.4277 182.51 68.5391 181.795 68.5391C181.127 68.5391 180.515 68.4277 179.958 68.2051C179.401 67.9766 178.918 67.6484 178.508 67.2207C178.104 66.7871 177.79 66.2568 177.567 65.6299C177.345 65.0029 177.233 64.2852 177.233 63.4766C177.233 62.4043 177.418 61.4961 177.787 60.752C178.162 60.002 178.695 59.4307 179.387 59.0381C180.078 58.6455 180.901 58.4492 181.856 58.4492C182.753 58.4492 183.544 58.6455 184.229 59.0381C184.915 59.4307 185.451 60.002 185.838 60.752C186.225 61.502 186.418 62.4102 186.418 63.4766ZM179.36 63.4766C179.36 64.1855 179.445 64.792 179.615 65.2959C179.791 65.7998 180.061 66.1865 180.424 66.4561C180.787 66.7197 181.256 66.8516 181.83 66.8516C182.404 66.8516 182.873 66.7197 183.236 66.4561C183.6 66.1865 183.866 65.7998 184.036 65.2959C184.206 64.792 184.291 64.1855 184.291 63.4766C184.291 62.7676 184.206 62.167 184.036 61.6748C183.866 61.1768 183.6 60.7988 183.236 60.541C182.873 60.2773 182.401 60.1455 181.821 60.1455C180.966 60.1455 180.342 60.4326 179.949 61.0068C179.557 61.5811 179.36 62.4043 179.36 63.4766ZM193.862 58.4492C194.958 58.4492 195.811 58.7334 196.42 59.3018C197.035 59.8643 197.343 60.7695 197.343 62.0176V68.3633H195.277V62.4043C195.277 61.6484 195.122 61.083 194.812 60.708C194.501 60.3271 194.021 60.1367 193.37 60.1367C192.427 60.1367 191.771 60.4268 191.401 61.0068C191.038 61.5869 190.856 62.4277 190.856 63.5293V68.3633H188.791V58.6338H190.399L190.689 59.9521H190.804C191.015 59.6123 191.275 59.334 191.586 59.1172C191.902 58.8945 192.254 58.7275 192.641 58.6162C193.033 58.5049 193.44 58.4492 193.862 58.4492ZM203.855 66.8691C204.125 66.8691 204.392 66.8457 204.655 66.7988C204.919 66.7461 205.159 66.6846 205.376 66.6143V68.1787C205.147 68.2783 204.852 68.3633 204.488 68.4336C204.125 68.5039 203.747 68.5391 203.354 68.5391C202.804 68.5391 202.309 68.4482 201.869 68.2666C201.43 68.0791 201.081 67.7598 200.823 67.3086C200.565 66.8574 200.437 66.2334 200.437 65.4365V60.207H199.109V59.2842L200.533 58.5547L201.21 56.4717H202.511V58.6338H205.297V60.207H202.511V65.4102C202.511 65.9023 202.634 66.2686 202.88 66.5088C203.126 66.749 203.451 66.8691 203.855 66.8691ZM209.419 54.6875V58.124C209.419 58.4814 209.407 58.8301 209.384 59.1699C209.366 59.5098 209.346 59.7734 209.322 59.9609H209.437C209.642 59.6211 209.894 59.3428 210.192 59.126C210.491 58.9033 210.825 58.7363 211.194 58.625C211.569 58.5137 211.968 58.458 212.39 58.458C213.134 58.458 213.767 58.584 214.288 58.8359C214.81 59.082 215.208 59.4658 215.483 59.9873C215.765 60.5088 215.905 61.1855 215.905 62.0176V68.3633H213.84V62.4043C213.84 61.6484 213.685 61.083 213.374 60.708C213.063 60.3271 212.583 60.1367 211.933 60.1367C211.306 60.1367 210.808 60.2686 210.438 60.5322C210.075 60.79 209.814 61.1738 209.656 61.6836C209.498 62.1875 209.419 62.8027 209.419 63.5293V68.3633H207.354V54.6875H209.419ZM225.336 65.5859C225.336 66.2246 225.181 66.7637 224.87 67.2031C224.56 67.6426 224.105 67.9766 223.508 68.2051C222.916 68.4277 222.189 68.5391 221.328 68.5391C220.648 68.5391 220.062 68.4893 219.57 68.3896C219.084 68.2959 218.624 68.1494 218.19 67.9502V66.166C218.653 66.3828 219.172 66.5703 219.746 66.7285C220.326 66.8867 220.874 66.9658 221.39 66.9658C222.069 66.9658 222.559 66.8604 222.857 66.6494C223.156 66.4326 223.306 66.1455 223.306 65.7881C223.306 65.5771 223.244 65.3896 223.121 65.2256C223.004 65.0557 222.781 64.8828 222.453 64.707C222.131 64.5254 221.656 64.3086 221.029 64.0566C220.414 63.8105 219.896 63.5645 219.474 63.3184C219.052 63.0723 218.732 62.7764 218.516 62.4307C218.299 62.0791 218.19 61.6309 218.19 61.0859C218.19 60.2246 218.53 59.5713 219.21 59.126C219.896 58.6748 220.801 58.4492 221.926 58.4492C222.523 58.4492 223.086 58.5107 223.613 58.6338C224.146 58.751 224.668 58.9238 225.178 59.1523L224.527 60.708C224.088 60.5146 223.646 60.3564 223.2 60.2334C222.761 60.1045 222.312 60.04 221.855 60.04C221.322 60.04 220.915 60.1221 220.634 60.2861C220.358 60.4502 220.221 60.6846 220.221 60.9893C220.221 61.2178 220.288 61.4111 220.423 61.5693C220.558 61.7275 220.789 61.8857 221.117 62.0439C221.451 62.2021 221.914 62.3984 222.506 62.6328C223.086 62.8555 223.587 63.0898 224.009 63.3359C224.437 63.5762 224.765 63.8721 224.993 64.2236C225.222 64.5752 225.336 65.0293 225.336 65.5859Z" fill="#13B2C2"/>
</svg>
