<svg xmlns="http://www.w3.org/2000/svg" viewBox="0 0 40 40"><path d="M8.673 17.404v2.353h2.933v1.412H8.673v2.823H7v-8h5.26v1.412H8.674Zm4.763-1.412h3.2c1.94 0 2.91.879 2.91 2.636 0 1.043-.405 1.811-1.213 2.305l1.176 3.06h-1.83l-.958-2.683H15.11v2.682h-1.673v-8Zm3.225 3.93c.38 0 .67-.116.872-.347.202-.232.303-.543.303-.936 0-.392-.105-.7-.315-.923-.21-.224-.505-.336-.885-.336H15.11v2.542h1.552Zm5.963-2.518v1.87h2.934v1.389h-2.934v1.917h3.661v1.412h-5.333v-8h5.333v1.412h-3.66Zm6.715 0v1.87h2.934v1.389h-2.934v1.917H33v1.412h-5.333v-8H33v1.412h-3.66Z" style="transform: scale(1.4); transform-origin: center;" /></svg>
