<svg xmlns="http://www.w3.org/2000/svg" viewBox="0 0 16 16"><path d="M7.34 11.33h1.33v-4H7.34v4ZM8 6c.2 0 .35-.07.48-.2a.61.61 0 0 0 .19-.47.65.65 0 0 0-.2-.47.65.65 0 0 0-.47-.2.65.65 0 0 0-.47.2.65.65 0 0 0-.2.47A.67.67 0 0 0 8 6Zm0 8.67a6.73 6.73 0 0 1-6.14-4.07A6.5 6.5 0 0 1 1.34 8 6.73 6.73 0 0 1 5.4 1.86 6.5 6.5 0 0 1 8 1.33a6.73 6.73 0 0 1 6.14 4.07c.34.81.52 1.68.52 2.6a6.73 6.73 0 0 1-4.07 6.14 6.5 6.5 0 0 1-2.6.53Zm0-1.34c1.5 0 2.75-.51 3.79-1.55A5.15 5.15 0 0 0 13.34 8c0-1.49-.52-2.75-1.55-3.78A5.15 5.15 0 0 0 8 2.67a5.1 5.1 0 0 0-3.78 1.55A5.15 5.15 0 0 0 2.67 8c0 1.49.52 2.75 1.55 3.78A5.15 5.15 0 0 0 8 13.33Z"/></svg>