<svg xmlns="http://www.w3.org/2000/svg" viewBox="0 0 58 58"><path fill-rule="evenodd" d="M8.4 29a20.5 20.5 0 1 0 41.01.01A20.5 20.5 0 0 0 8.4 29zm44.1 0A23.55 23.55 0 0 1 29 52.5 23.55 23.55 0 0 1 5.5 29 23.55 23.55 0 0 1 29 5.5 23.55 23.55 0 0 1 52.5 29zm-22-10.3c0-.4-.2-.8-.4-1-.3-.3-.6-.4-1-.4s-.8.2-1 .4c-.3.3-.4.6-.4 1v17l-6.3-6.3c-.3-.3-.6-.4-1-.4s-.8.2-1 .4-.4.6-.4 1 .2.8.4 1l8.8 8.8c.1.1.3.2.5.3.2.1.4.1.6.1s.4 0 .6-.1c.2-.1.3-.2.5-.3l8.8-8.8c.3-.3.4-.6.4-1s-.2-.8-.4-1c-.3-.3-.6-.4-1-.4s-.8.2-1 .4l-6.3 6.3v-17z" clip-rule="evenodd"/></svg>
