<svg xmlns="http://www.w3.org/2000/svg" viewBox="0 0 58 58"><path d="M10.2 9c.3 0 .7.1.9.4.2.2.4.6.4.9v37.4c0 .3-.1.6-.4.9-.2.2-.6.4-.9.4s-.7-.1-.9-.4c-.2-.2-.4-.6-.4-.9V10.3c0-.3.1-.6.4-.9.3-.2.6-.4.9-.4zm3.8 3.8c0-.3.1-.6.4-.9.2-.2.6-.4.9-.4h10c.3 0 .7.1.9.4.2.2.4.6.4.9v2.5c0 .3-.1.6-.4.9-.2.2-.6.4-.9.4h-10c-.3 0-.7-.1-.9-.4-.2-.2-.4-.6-.4-.9v-2.5zm5 10c0-.3.1-.6.4-.9s.6-.4.9-.4h17.5c.3 0 .7.1.9.4.2.2.4.6.4.9v2.5c0 .3-.1.6-.4.9-.2.2-.6.4-.9.4H20.2c-.3 0-.7-.1-.9-.4s-.3-.6-.3-.9v-2.5zm5 9.9c0-.3.1-.6.4-.9.2-.2.6-.4.9-.4h15c.3 0 .7.1.9.4.2.2.4.6.4.9v2.5c0 .3-.1.6-.4.9-.2.2-.6.4-.9.4h-15c-.3 0-.7-.1-.9-.4-.2-.2-.4-.6-.4-.9v-2.5zm5 10c0-.3.1-.6.4-.9.2-.2.6-.4.9-.4h17.5c.3 0 .7.1.9.4.2.2.4.6.4.9v2.5c0 .3-.1.6-.4.9-.2.2-.6.4-.9.4H30.3c-.3 0-.7-.1-.9-.4-.2-.2-.4-.6-.4-.9v-2.5z"/></svg>
