<svg xmlns="http://www.w3.org/2000/svg" viewBox="0 0 28 28"><path d="M18 10.6c.1.1.2.3.2.5s-.1.4-.2.5-.3.2-.5.2h-7l-.2.2-.3-.4-.3-.3.1-.1c0-.2.1-.4.2-.5.1-.1.3-.2.5-.2h7c.2-.1.4 0 .5.1zm3.7-1.2V20c0 .8-.3 1.5-.8 2.1-.5.6-1.2 1-2 1v.7c0 .2-.1.4-.2.5-.3.3-.7.3-1 0-.1-.1-.2-.3-.2-.5v-.7h-7v.7l.1.1-.3.3-.3.3-.1-.1c-.2 0-.4-.1-.5-.2-.1-.1-.2-.3-.2-.5V23c-.8-.1-1.5-.5-2-1-.5-.6-.8-1.3-.8-2.1V9.4c0-.8.3-1.6.9-2.2.6-.6 1.4-.9 2.2-.9h1.8V4.8h-.7c-.2 0-.4-.1-.5-.2-.2-.2-.3-.3-.3-.5s.1-.4.2-.5c.1-.1.3-.2.5-.2h7c.2 0 .4.1.5.2.1.1.2.3.2.5s-.1.4-.2.5-.3.2-.5.2h-.4v1.4h1.4c.8 0 1.6.3 2.2.9.7.6 1 1.4 1 2.3zm-9.1-3.2h3.2V4.8h-3.2v1.4zm7.7 3.2c0-.5-.2-.9-.5-1.2-.3-.3-.8-.5-1.2-.5H9.4c-.4-.1-.9.1-1.2.4s-.5.8-.5 1.3V20c0 .5.2.9.5 1.2.3.3.8.5 1.2.5h9.2c.5 0 .9-.2 1.2-.5.3-.3.5-.8.5-1.2V9.4z"/></svg>
